# xmcd CD database file
#
# Track frame offsets:
#	150
#	11354
#	24944
#	42744
#	58446
#	74323
#	88485
#	102039
#	117520
#	128104
#	146119
#	159294
#	180405
#	191661
#	206887
#	222798
#	235866
#	246638
#	261104
#	272201
#	286583
#	300420
#	313613
#	327189
#
# Disc length: 4564 seconds
#
# Revision: 0
# Processed by: cddbd v1.5.2PL0 Copyright (c) Steve Scherf et al.
# Submitted via: ACXtractor (MTCDDB.DLL V2003.07.15)
#
DISCID=6811d218
DTITLE=Ian Betteridge - My Way and Lone Star
DYEAR=1998
DGENRE=Country
TTITLE0=Roll on Summertime
TTITLE1=Terrigal Beach
TTITLE2=Wake Up
TTITLE3=Was It
TTITLE4=My Way
TTITLE5=Lost River
TTITLE6=Bring on the Dancing Girls
TTITLE7=Can Heaven be Better than This
TTITLE8=I'm Independant
TTITLE9=Under the Influence of Jones
TTITLE10=I'd Rather Loved and Lost
TTITLE11=The Plastic Girl
TTITLE12=The Bootscootin' Bug
TTITLE13=When She Says Darling
TTITLE14=Let's go to theTop
TTITLE15=Young Cowboys Game
TTITLE16=Lone Star Dance
TTITLE17=Happy Anniversary
TTITLE18=What a Way to Go
TTITLE19=Country with a Kick
TTITLE20=Alice Springs
TTITLE21=Life's Simple Things
TTITLE22=My Special Place
TTITLE23=I Promise You
EXTD=ID3G:   2 YEAR: 1998
EXTT0=
EXTT1=
EXTT2=
EXTT3=
EXTT4=
EXTT5=
EXTT6=
EXTT7=
EXTT8=
EXTT9=
EXTT10=
EXTT11=
EXTT12=
EXTT13=
EXTT14=
EXTT15=
EXTT16=
EXTT17=
EXTT18=
EXTT19=
EXTT20=
EXTT21=
EXTT22=
EXTT23=
PLAYORDER=
